<?xml version="1.0" encoding="utf-8"?>
<!-- Generator: Adobe Illustrator 24.2.0, SVG Export Plug-In . SVG Version: 6.00 Build 0)  -->
<svg version="1.1" id="Capa_1" xmlns="http://www.w3.org/2000/svg" xmlns:xlink="http://www.w3.org/1999/xlink" x="0px" y="0px"
	 viewBox="0 0 595.3 841.9" style="enable-background:new 0 0 595.3 841.9;" xml:space="preserve">
<style type="text/css">
	.st0{fill:#878783;stroke:#93909E;stroke-miterlimit:10;}
	.st1{fill:#EDECE8;stroke:#000000;stroke-miterlimit:10;}
	.st2{fill:#167652;stroke:#D8DCD4;stroke-miterlimit:10;}
	.st3{fill:#F0F0F0;stroke:#333332;stroke-miterlimit:10;}
	.st4{fill:none;}
	.st5{fill:#3F6AA4;stroke:#0F153A;stroke-miterlimit:10;}
</style>
<g>
	<g>
		<path class="st0" d="M539,379.4c-12.2,2.2-24.2,1.3-36.1-3c-4.3-1.2-8.5-1.6-12.8-1.6c-6.5,0-13.6,0-21.2,0
			c-7.6,1.8-15.8-6.1-24.4,0c-8.6-7-17.6-4.1-27,0c-9.4-3.8-19.1-7.1-29.1,0c-10-1-20.3,0.9-30.7,0c-10.4,0-21,0-31.6,0
			c-8.3,0-16.6-1.5-24.9,0c-8.3-4.5-16.6-3.8-24.9,0c-8.3,3.3-16.5-5.2-24.7,0c-8.1-4.3-16.2,6.2-24.1,0c-7.9-6.6-15.7-3.3-23.4,0
			c-7.6,2.8-15.1,0-22.3,0c-21.7,0-41.4,0-58,0c-8.1,0-15.4,0-21.8,0c-6.4-5-12-12.3-16.6,0c-4.6-13-8.1,14.5-10.6,0
			c-2.4,2.8-3.7,4.5-3.7,0c-7.4-10.7-14.5,11.8-21,3.5c-6.5,0.9-12.3-4.8-17.2,9.4c-4.9,5.2-8.9,1.9-11.6,14
			c-2.7,3.2-4.3,20.2-4.3,17c0,0.8,0,2.7,0,8.2c0,2.4,0,3.9,0,6s0,4.7,0,9.3c0,13.9,0,7.6,0,8.2c0,30.4,1.5,9.3,4.3,17
			c2.7,11.2,6.7-2,11.6,14c4.9,3.8,10.7-11.2,17.2,9.4c6.5-9.7,13.5-11.2,21,3.5c0,2.1,1.3,3.9,3.7,0c2.4-12,6,4.5,10.6,0
			c4.6,0,10.2,0,16.6,0c23.9,0,59.8,0,100.8,0c8.2,0,16.6,0,25.2,0c8.6,1.6,17.3,2.1,26.1,0c8.8,5.5,17.7,0.8,26.7,0
			c9-5.3,18,2.1,26.9,0c9-2.7,18-3.1,26.9,0c8.9,0,17.7,0,26.5,0s17.3,0,25.7,0c10.1,0,20,0,29.5,0c9.5,4.3,18.6,2.4,27.4,0
			c8.7-7.9,17-4,24.7,0c7.7-0.9,14.9-0.4,21.5,0c6.6-5.3,12.5,5.8,17.7,0c2.6,4.5,5,5.5,7.3,4.8s4.3-2.9,6.1-4.8c3.7-3,6.5-7,8.4,0
			c1.9,1.3,2.9,4.1,2.9,0c3.7,8.5,7.3-10.3,10.8-0.2c3.5-6.1,6.9-0.2,10.1-3.2c3.2-4,6.3,3.1,9.2-4.1c2.9,3.9,5.5,4.8,8-5.3
			c2.5,11.9,4.7,6.9,6.6-6.9c2-5.6,3.6-3.4,5-7.1c1.4,1.2,2.4,6.5,3.2-9.3c0.7,5.9,1.1-2.4,1.1-7.7c0-3.2,0-6.3,0-8.2
			c0-2.6,0-5.8,0-8.5s0-5.3,0-6.7c0-4.7,0-8.2,0-8.2c0-3-0.4-6-1.1-8.8s-1.8-5.6-3.2-8.2c-3.7-13.3-11.7-31.6-31.2-25.5
			C546.9,377.1,543.1,378.2,539,379.4z"/>
	</g>
	<g>
		<path class="st1" d="M527,348.9c-9.2,1.8-17.2-2.2-25.6-5.4c-3.3-1.3-7.2-1.7-11.5-1.7c-6.5,0-13.6,0-21.2,0
			c-7.6,2.2-15.8-7.5-24.4,0c-8.6-8.6-17.6-5-27,0c-9.4-4.7-19.1-8.8-29.1,0c-10-1.2-20.3,1.1-30.7,0c-10.4,0-21,0-31.6,0
			c-8.3,0-16.6-1.8-24.9,0c-8.3-5.5-16.6-4.6-24.9,0c-8.3,4-16.5-6.4-24.7,0c-8.1-5.3-16.2,7.6-24.1,0c-7.9-8.1-15.7-4-23.4,0
			c-7.6,3.5-15.1,0-22.3,0c-21.7,0-41.4,0-58,0c-8.1,0-15.4,0-21.8,0c-6.4-6.2-12-15.1-16.6,0c-4.6-16-8.1,17.8-10.6,0
			c-2.4,3.4-3.7,5.5-3.7,0c-7.4-13.1-14.5,14.5-21,4.3c-6.5,1.1-12.3-5.9-17.2,11.6c-4.9,6.4-8.9,2.4-11.6,17.2
			c-2.7,4-4.3,24.9-4.3,21c0,1,0,3.3,0,10.1c0,2.9,0,4.8,0,7.3c0,2.6,0,5.8,0,11.4c0,17.1,0,9.4,0,10.1c0,37.4,1.5,11.4,4.3,21
			c2.7,13.8,6.7-2.4,11.6,17.2c4.9,4.7,10.7-13.7,17.2,11.6c6.5-11.9,13.5-13.8,21,4.3c0,2.5,1.3,4.8,3.7,0c2.4-14.7,6,5.5,10.6,0
			c4.6,0,10.2,0,16.6,0c23.9,0,59.8,0,100.8,0c8.2,0,16.6,0,25.2,0c8.6,2,17.3,2.6,26.1,0c8.8,6.8,17.7,1,26.7,0
			c9-6.5,18,2.6,26.9,0c9-3.4,18-3.8,26.9,0c8.9,0,17.7,0,26.5,0s17.3,0,25.7,0c10.1,0,20,0,29.5,0c9.5,5.3,18.6,3,27.4,0
			c8.7-9.7,17-5,24.7,0c7.7-1.1,14.9-0.5,21.5,0c6.6-6.5,12.5,7.1,17.7,0c2.6,5.5,5,6.7,7.3,5.9s4.3-3.5,6.1-5.9
			c3.7-3.7,6.5-8.6,8.4,0c1.9,1.6,2.9,5.1,2.9,0c3.7,10.4,7.3-12.7,10.8-0.3c3.5-7.5,6.9-0.3,10.1-4c3.2-5,6.3,3.9,9.2-5
			c2.9,4.8,5.5,5.9,8-6.6c2.5,14.7,4.7,8.5,6.6-8.4c2-6.9,3.6-4.1,5-8.7c1.4,1.4,2.4,8,3.2-11.5c0.7,7.2,1.1-3,1.1-9.5
			c0-3.9,0-7.7,0-10.1c0-3.3,0-7.1,0-10.5s0-6.5,0-8.3c0-5.8,0-10.1,0-10.1c1-16,0-33-14-44c-11-7-23-9-35.3-5.1
			C533.2,347.3,530.1,348,527,348.9z"/>
	</g>
	<g>
		<path class="st2" d="M48.1,418v0.1c0,0,0,0.1,0,0.2c1.3,0,2.7,0.3,4,0.4c1.9,0.2,4.3-0.9,5.9,0.8c0.5,0.2,8.3,0.9,6.4,0.3
			c-1.4-2.6,1.5,0,2.2-0.1c0.7,0-2.1-1.7,2.1-0.2c0.9-0.7,0.9-0.2,1.5-0.3c-2.3-1.5,1.7-0.1,1.7-0.1s1.4,0.1,1.6,0.3
			s0.3,0.4,0.3,0.5c0,0.5-0.5,0.9-1.4,1.2c-0.9,0.4-2.2,0.6-3.7,0.9s-3.2,0.4-5,0.5c-1.8,0.1-3.5,0.2-5.2,0.3
			c-1.7,0.1-3.1,0.1-4.5,0.1s-2.3,0-2.8,0s-1.2,0-2-0.1c-0.8,0-1.6-0.1-2.4-0.3c-0.4,0.1-0.6,0.1-0.7,0.1c-0.9,0-1.6-0.6-2.3-1.8
			c-0.7-1.2-1.3-2.7-1.8-4.5s-0.9-3.8-1.2-6s-0.6-4.3-0.8-6.2c-0.2-2-0.3-3.8-0.4-5.3c-0.1-1.6-0.1-2.7-0.1-3.3c0-0.7,0-1.6,0.1-2.7
			s0.2-2.3,0.4-3.6s0.5-2.5,1-3.8c0.4-1.3,1-2.4,1.8-3.5c0.7-1,1.7-1.9,2.8-2.5c1.2-0.6,2.5-1,4.1-1c0.9,0,1.5,0.1,1.8,0.4
			c0.3,0.2,0.4,0.6,0.4,1.1c0,0.3,0,0.6-0.1,0.9s-0.1,1.7-0.7,1.9c1,6.8-2.5,6.8-3.3,10.7c-0.8,3.9,4,10.7-1.3,12.1
			c-1.9,0.5,3.6,4.9,0.4,6.1C48.6,413.2,47.5,416,48.1,418z"/>
		<path class="st2" d="M93.6,423c-3.3,0-6.1-0.5-8.4-1.3c-2.3-0.9-4.3-2.1-5.8-3.5c-1.6-1.5-2.8-3.1-3.7-5.1s-1.6-3.9-2.1-5.9
			s-0.8-4-0.9-6s-0.2-3.8-0.2-5.5c0-0.7,0.1-1.6,0.2-2.7s0.4-2.3,0.7-3.6s0.8-2.5,1.4-3.8s1.3-2.4,2.2-3.5c0.9-1,2-1.9,3.2-2.5
			c1.3-0.6,2.7-1,4.4-1c0.9,0,1.5,0.1,1.7,0.4s0.3,0.7,0.3,1.4c1.3-0.6,2.8-1.1,4.4-1.5c1.7-0.4,3.6-0.6,6-0.6c4.2,0,7.5,0.7,10,2
			s4.4,3.1,5.7,5.3c1.3,2.2,2.2,4.6,2.6,7.2c0.4,2.7,0.6,5.3,0.6,7.9c0,2.7-0.5,5.3-1.5,8s-2.4,5.1-4.3,7.2s-4.2,3.9-6.9,5.2
			C100.3,422.4,97.2,423,93.6,423z M93.6,420.7c-2.2-3.3,2.3-3.8,8.3-2.3c-1.1-2.5,6.8-5.2,5.3-5.1s4.1-5.4,2.8-6.3
			c-1.2-0.9,0.8-4.2,0.8-6c0-2-0.1-4.1-0.4-6.2c-0.3-2.2-0.9-4.1-2-5.9s-4.3-4.9-4.7-4.4c-0.4,0.5-5.5,1.1-8.4-1.7
			c-4.7,4.1-10.6,2.8-10.6,2.8s-1.8,6-4.6,7.3c4.8-0.9,4.8,5.3-1.9,7.9c-2.2,0.8,1.7,5.2,0.9,7.2c0.6,2.4,1.4,5.3,2.7,6.5
			s2.8,3.5,4.7,4.7C87.2,419.3,84.3,414,93.6,420.7z"/>
		<path class="st2" d="M128.6,382.5c0,1.4-5.9-0.5-5.2,0.5s-0.6,0.8-1.9-0.1c-1.3,0.6-2.4,0.6-1.9-0.3c-0.6-0.1-1.1-0.4-1.5-0.6
			s-0.6-0.6-0.6-1c0-0.6,0.3-1.1,1-1.4s-0.2-0.9,2-0.6c0.5-0.6,1.8,0.9,3.1-0.4c1.3-1.2,2.7,0.4,3.3-0.1c0.6-0.5,2.7,1.2,3.7,0
			c0.9-1.2,4-0.4,5.8,0.1c1.4-2.4,4.3-2.2,6.7,0.3c-0.7-0.1,1.1-3.6,6.4,0.5c-0.3-1.4,3.5,0.5,4.8,0.9s1.9,0.8,1.9,1.2
			c0,0.1-0.1,0.2-0.4,0.5s-0.9,0.3-1.9,0.3c-0.7,0-0.4,0.7-2.3-0.1c0.2,1.8-1.9-1.6-2-0.3s0.5,2.4-2.7-0.2c-1.4,2-2.4,2.6-2.9-0.1
			h-2.3c-0.1,0.4-0.3,0.8-0.6,1.4c-1.3,3.3-4.4,10.7-3.3,10.7c1.2,0.1-1.3,7.9-1.3,12.1c0,2,0.1,4,0.4,6.1c0.2,2.1,0.6,4.2,1.2,6.3
			c0.1,0.4,0.2,0.7,0.3,1.2c0.1,0.4,0.1,0.8,0.1,1c0,0.9-0.3,1.5-0.8,1.9s-1,0.6-1.5,0.6c-0.9,0-1.6-0.6-2.3-1.8
			c-0.7-1.2-1.3-2.7-1.8-4.5s-0.9-3.8-1.2-6s-0.6-4.4-0.8-6.5c-0.8-2.1,0.4-5.6-0.4-5.7s-0.1-3-0.1-3.8c0-0.5,0-1.2,0.1-2.2
			c-0.9-1.2,1.1-2.9,0.4-3.2c-0.7-0.3,0.5-2.4,1-3.6c0.4-1.2,1-2.4,1.8-3.4c-0.8,0.1-1.6,0.2-2.3,0.2
			C129.9,382.8,128.6,381.1,128.6,382.5z"/>
		<path class="st2" d="M179,423c-3.3,0-9.4-1.3-9.4-1.3s-3.3-2.1-4.8-3.5c-1.6-1.5-2.8-3.1-3.7-5.1s-1.6-3.9-2.1-5.9s-0.8-4-0.9-6
			c-0.1-2-0.2-3.8-0.2-5.5c0-0.7,0.1-1.6,0.2-2.7s0.4-2.3,0.7-3.6c0.3-1.3,0.8-2.5,1.4-3.8c0.6-1.3,1.3-2.4,2.2-3.5
			c0.9-1,2-1.9,3.2-2.5c1.3-0.6,2.7-1,4.4-1c0.9,0,1.5,0.1,1.7,0.4s0.3,0.7,0.3,1.4c1.3-0.6,2.8-1.1,4.4-1.5c1.6-0.4,3.6-0.6,6-0.6
			c4.2,0,7.5,0.7,10,2s4.4,3.1,5.7,5.3c1.3,2.2,2.2,4.6,2.6,7.2c0.4,2.7,0.6,5.3,0.6,7.9c0,2.7-0.5,5.3-1.5,8s-2.4,5.1-4.3,7.2
			c-1.9,2.1-4.2,3.9-6.9,5.2C185.7,422.4,182.6,423,179,423z M179,423c-3.3,0-10.4-1.3-10.4-1.3s-2.3-2.1-3.8-3.5 M178,423
			c-3.3,0-10.4-1.3-10.4-1.3s-2.3-2.1-3.8-3.5 M177,423c-3.3,0-10.4-1.3-10.4-1.3s-2.3-2.1-3.8-3.5 M176,423
			c-3.3,0-10.4-1.3-10.4-1.3s-2.3-2.1-3.8-3.5 M175,423c-3.3,0-10.4-1.3-10.4-1.3s-2.3-2.1-3.8-3.5 M174,423
			c-3.3,0-10.4-1.3-10.4-1.3s-2.3-2.1-3.8-3.5 M180,423c-3.3,0-10.4-1.3-10.4-1.3s-2.3-2.1-3.8-3.5 M179,420.7c0,0,6.1-0.9,8.3-2.3
			s4-3.1,5.3-5.1c-8.6,1.9,2.9-6.3,2.9-6.3s0.8-4.2,0.8-6c0-2-0.1-4.1-0.4-6.2c-0.3-2.2-2-5.9-2-5.9s-8.8-0.4-4.7-4.4
			c-2.1-1.1-4.9-1.7-8.4-1.7c-11.9,10.7-10.6,2.8-10.6,2.8s-3.3,4.9-4.6,7.3c8.4,6.9-1.9,7.9-1.9,7.9s0.3,4.7,0.9,7.2
			c12.9,0.2,1.6,6.8,2.7,6.5c1.1-0.3,2.8,3.5,4.7,4.7C170.9,413.4,179,420.7,179,420.7z"/>
	</g>
	<path class="st3" d="M-192.8,391.4"/>
	<rect x="-273.9" y="187" class="st4" width="273.9" height="44.1"/>
	<g>
		<path class="st5" d="M345.2,380.4c0.8,0.5,1.4,1.1,1.8,1.8c0.4,0.7,0.7,1.5,0.8,2.4c0.1,0.9,0.1,1.6,0.1,2.3
			c0,0.6-0.1,1.4-0.3,2.4c0,0.3-0.1,0.5-0.1,0.6c-0.6,4-1.8,9.8-3.7,17.3c-1.9,7.6-3,11.9-3.2,13c-1.4,6.4-2.3,11.5-2.5,15.4
			c-0.2,2.5-0.2,4.5,0,5.7c0.1,0.9,0.3,1.7,0.6,2.5c0,0,0,0.1,0.1,0.2c0,0.1,0.1,0.2,0.1,0.2l0,0l0,0c0.1,0.1,0.1,0.2,0.2,0.4
			c0.1,0.2,0.2,0.3,0.2,0.4c0.4,0.6,0.5,1.1,0.2,1.7s-0.9,0.9-1.9,0.9c-1,0.1-2-0.2-2.8-0.7c-0.9-0.5-1.6-1.1-2.1-1.8
			c-0.8-1.1-1.4-2.5-1.7-4c-0.3-1.6-0.5-2.9-0.5-3.9s0.1-2.4,0.2-4.2c0.2-2.5,0.6-5.2,1.1-8.2c0.6-3,1-5.4,1.4-7s1.1-4.5,2.2-8.6
			s1.7-6.5,1.9-7.3c1.6-6.4,2.7-10.9,3.1-13.7c0.3-1.7,0.4-3.2,0.4-4.6c0-0.1,0-0.1,0-0.3c0-0.1,0-0.2,0-0.3
			c-0.3,0.2-0.6,0.4-0.8,0.5c-1.4,1-2.9,2.7-4.6,5.1c-2.3,3.3-4.5,6.9-6.4,10.8c-1.7,3.4-3.5,7.1-5.3,11.2
			c-1.9,4.1-3.4,7.5-4.5,10.2c-1.2,2.7-2.8,6.6-4.9,11.7c-2.1,5-3.6,8.6-4.4,10.6l-0.1,0.1c-0.4,0.6-1.2,0.9-2.3,0.9
			c-0.9,0-1.8-0.3-2.6-0.8c-0.8-0.5-1.4-1-1.8-1.6c-0.6-1-1-2.3-1.1-3.7c-0.2-1.4-0.2-2.5-0.1-3.4c0.1-0.8,0.2-2.1,0.5-3.8
			c0.4-2.8,0.9-5.6,1.6-8.7c0.7-3,1.5-6.5,2.5-10.4s1.7-6.8,2.2-8.6c1.3-5.6,2.1-9.6,2.3-12.2c0.1-0.8,0.1-1.6,0.1-2.4V388
			c0,0-0.1,0.1-0.2,0.1c-0.1,0.1-0.1,0.1-0.2,0.1c-0.9,0.8-1.9,1.8-2.8,3c-2.5,3.3-4.7,6.7-6.6,10.4c-2,3.6-4,7.8-6.1,12.5
			c-4.1,9.1-7.7,18.7-10.9,28.8c0,0.1,0.1,0.2,0.1,0.4c0.1,0.2,0.1,0.3,0.1,0.4c0,0,0.1,0.1,0.1,0.2s0,0.2,0,0.2v0.1l0,0l0,0
			l0.5,0.8c0.4,0.6,0.5,1.1,0.2,1.7s-0.9,0.9-1.9,0.9c-1,0.1-2-0.2-2.8-0.7c-0.9-0.5-1.6-1.1-2.1-1.8c-0.8-1.1-1.4-2.5-1.7-4
			c-0.3-1.6-0.5-2.9-0.5-3.9s0.1-2.4,0.2-4.2c0.2-2.5,0.6-5.2,1.1-8.2c0.6-3,1-5.4,1.4-7s1.1-4.5,2.2-8.6s1.7-6.5,1.9-7.3
			c1.6-6.4,2.7-10.9,3.1-13.7c0.3-1.7,0.4-3.2,0.4-4.6c0-0.1,0-0.2,0-0.3c0-0.1,0-0.2,0-0.3l0,0c0-0.1,0-0.2,0-0.3
			c0-0.1-0.1-0.2-0.1-0.3c-0.5-0.5-0.7-0.9-0.8-1.4c-0.1-0.5,0.1-0.9,0.6-1.3c0.4-0.3,1-0.5,1.6-0.4s1.2,0.2,1.7,0.4
			c0.5,0.2,0.9,0.4,1.4,0.7c0.8,0.5,1.4,1.1,1.8,1.8c0.4,0.7,0.7,1.5,0.8,2.3c0.1,0.8,0.1,1.6,0,2.3c0,0.7-0.1,1.5-0.2,2.4
			c0,0.2-0.1,0.4-0.1,0.5c-0.6,4-1.8,9.8-3.7,17.3c-1.9,7.6-3,11.9-3.2,13c-1.4,6.6-2.3,11.7-2.6,15.4c-0.1,2-0.1,3.5-0.1,4.5
			c1.1-4.2,2.5-8.9,4.4-14.2c4.2-12.1,8.2-22.1,12-29.8c2-4.2,3.7-7.3,5.1-9.4c0.4-0.6,0.8-1.1,1.1-1.4c0.3-0.4,0.7-0.7,1.4-1.1
			c0.6-0.4,1.3-0.6,2.1-0.6c0.5-0.3,1.2-0.4,1.9-0.3c4.1,0.6,6.1,3.4,6.1,8.3c0,2.1-0.2,4.5-0.6,7.1s-0.8,4.7-1.2,6.5
			c-0.4,1.8-1,4.2-1.8,7.2s-1.3,5.2-1.6,6.6c-1.4,6-2.4,10.8-2.8,14.3c-0.3,2.3-0.5,4.1-0.4,5.6c0,0.2,0,0.6,0.1,1l0.1,0.9v0.1
			c0,0.1,0,0.1,0,0.1c3.1-9,6.6-18.4,10.5-28.2c0.3-0.6,1.1-2.9,2.6-6.6c1.5-3.8,2.5-6.4,3.1-7.8s1.6-3.5,2.9-6.2s2.6-5.1,3.9-7.2
			c1.3-2,2.3-3.4,3.1-4.1c1.8-1.7,3.9-2.2,6.3-1.6c0.5,0.1,0.8,0.3,1.1,0.5C343.9,379.7,344.6,380,345.2,380.4z"/>
		<path class="st5" d="M395.2,427.1c0.1-0.1,0.3-0.2,0.5-0.1c0.2,0,0.3,0.1,0.4,0.3c0.1,0.1,0.2,0.3,0.1,0.4
			c-2.3,5.2-5.3,9.6-9.1,13.2c-2.6,2.4-5.3,3.4-8.1,2.9c-2.2-0.4-4.1-1.2-5.5-2.4c-1.4-1.2-2.5-2.6-3.1-4.3
			c-0.4-1.1-0.7-2.4-0.7-3.9s0.1-2.7,0.2-3.7c0.2-1,0.4-2.3,0.8-3.9c0.3-1.6,0.8-3.3,1.4-5.3c-1,2-2.4,4.7-4.1,7.9
			c-2,3.8-3.7,6.8-5,9s-2.5,3.8-3.5,4.8c-1.8,1.7-4.1,2.3-6.6,1.8c-0.2,0-0.4-0.1-0.6-0.1c-1.8-0.3-3.3-0.8-4.6-1.7
			c-1.3-0.8-2.2-1.8-2.9-3c-0.6-1.2-1.1-2.3-1.3-3.5c-0.2-1.2-0.3-2.4-0.3-3.6c0.1-2.2,0.5-4.6,1.1-7.2s1.2-4.8,1.8-6.6
			c0.6-1.8,1.4-4.1,2.4-7c0.3-0.9,1.2-1.1,2.7-0.6c1.3,0.4,2.4,1,3.2,1.9c0.5,0.5,0.7,1,0.6,1.4c-0.3,1.2-1,4-2.1,8.2
			s-1.9,7.5-2.2,9.8c-0.4,2.6-0.4,4.7,0,6.4c0.1,0.7,0.4,1.4,0.8,2c0.1,0.1,0.2,0.2,0.2,0.3c0,0,0.1,0.1,0.2,0.2s0.2,0.2,0.3,0.2
			h0.1h0.1c0.7,0.2,1.4,0.2,1.9,0.1c0.3-0.1,0.7-0.3,1.2-0.6c0.5-0.3,1-0.7,1.6-1.3c1.4-1.4,2.8-3.1,4.1-5.1
			c2.1-2.9,4.7-7.2,7.9-12.8c3.2-5.6,5.2-9.1,6-10.4c0,0,0,0,0-0.1v-0.1c0.1-0.1,0.2-0.1,0.3-0.1c0.9-0.4,2.2-0.2,3.8,0.7
			c1.6,0.9,2.4,1.8,2.2,2.6c-0.3,1.4-0.9,3.9-1.9,7.5c-0.9,3.5-1.6,6.3-2,8.2c-0.3,1.5-0.5,2.7-0.6,3.6s-0.1,2,0,3.4
			s0.4,2.5,0.9,3.3v0.1l0.2,0.4l-0.1-0.1c0.2,0.3,0.5,0.5,0.9,0.7c-0.2-0.1-0.3-0.2-0.3-0.2s0.1,0,0.3,0.1l0.8,0.2
			c1.1,0,2.6-0.6,4.4-1.9c1.5-1,2.8-2.1,4-3.4s2.5-2.8,3.9-4.7C393.6,429.1,394.6,427.8,395.2,427.1z"/>
		<path class="st5" d="M412.7,427.1c0.1-0.1,0.3-0.1,0.5-0.1s0.3,0.1,0.5,0.3c0.1,0.1,0.2,0.3,0.1,0.4c-2.2,2.8-4.7,5.6-7.6,8.2
			s-6.3,5.4-10.3,8.4c-2.3,9-4.8,15.9-7.4,20.6c-3.3,5.9-7.7,8.3-13.2,7.2c-1.4-0.3-2.6-0.8-3.5-1.7c0,0-0.1-0.1-0.2-0.1
			s-0.2-0.1-0.2-0.1c-2.7-2.2-3.5-4.6-2.4-7.1c0.3-0.8,0.9-1.6,1.6-2.5c0.7-0.8,1.4-1.6,2.1-2.1c0.6-0.6,1.5-1.3,2.5-2.1
			c1.9-1.5,5.7-4.3,11.4-8.2c0,0,0,0,0-0.1V448c1.4-4.4,3.2-10.7,5.4-19c2.2-8.3,3.8-14.2,4.9-17.7c0.3-1,1.2-1.4,2.7-1.2
			c1.3,0.2,2.4,0.7,3.3,1.6c0.7,0.6,1,1.2,0.8,1.8c-1,4.1-3.1,12.2-6.2,24.2c-0.1,0.4-0.3,1-0.5,1.7s-0.3,1.3-0.4,1.6
			C403.3,436,408.7,431.4,412.7,427.1z M382.6,459.1c1-2.1,1.9-4.4,2.8-7l-0.3,0.2c-3,2.3-5,3.9-6,4.8l0,0c-0.9,1-1.6,1.7-2.1,2.2
			c-0.4,0.5-1,1.1-1.6,2s-1.1,1.7-1.4,2.4c-0.4,0.9-0.6,1.7-0.5,2.4c0.1,0.3,0.1,0.6,0.2,0.7c0.1,0,0.1,0.1,0.1,0.1
			c0.1,0,0.1,0.1,0.1,0.1l0.1,0.1c0.3,0.1,0.6,0.1,0.8,0.1h0.1c0.1,0,0.1,0,0.1,0c0.1,0,0.1,0,0.2,0s0.2,0,0.2,0
			c0.2,0,0.4-0.1,0.5-0.1s0.2-0.1,0.3-0.1c0.1,0,0.2-0.1,0.3-0.1c0,0,0.1-0.1,0.2-0.1s0.2-0.1,0.3-0.1c0.6-0.4,1-0.7,1.4-1
			c0.3-0.3,0.7-0.6,1-1.1c0.2-0.2,0.5-0.7,1-1.4C381,462.2,381.7,460.9,382.6,459.1z M397.5,406.9c-0.4-0.1-0.7-0.3-1.1-0.6
			c-0.4-0.3-0.4-0.6,0-0.8c0.2-0.1,0.4-0.2,0.7-0.4c0.3-0.2,0.6-0.3,0.7-0.4c0.3-0.2,0.7-0.5,1.1-0.9c0.7-0.8,1.1-1.7,1-2.7
			c0-0.2,0-0.5,0-0.9s0-0.6,0-0.8c0-0.1,0-0.2,0-0.3c-0.1-0.4-0.1-0.6-0.1-0.8v-0.9v-0.1c0-0.1,0-0.2,0-0.3c0-0.1,0-0.2,0-0.3V396
			c0-0.1,0-0.2,0-0.3c0-0.2-0.1-0.3-0.2-0.6l0,0c-0.1-0.4-0.1-0.8,0.3-1.2c0.5-0.4,1.1-0.6,1.8-0.5c0.7,0,1.4,0.2,1.9,0.5
			c1.6,0.9,2.6,1.9,3.1,3.1c0.3,0.8,0.4,1.5,0.3,2.1c-0.3,1.1-0.5,1.8-0.6,2.1c-0.1,0.1-0.2,0.4-0.4,0.8s-0.3,0.7-0.5,0.9
			c-0.1,0.1-0.2,0.3-0.4,0.5c-0.2,0.2-0.4,0.4-0.5,0.6c-0.2,0.2-0.4,0.4-0.6,0.5c-0.7,0.6-1.3,0.9-1.7,1.1
			C400.7,406.8,399.1,407.1,397.5,406.9z M399.9,396.2v0.2C399.9,396.4,399.9,396.4,399.9,396.2L399.9,396.2z"/>
		<path class="st5" d="M479.4,427.1c0.2-0.2,0.4-0.2,0.7,0c0.2,0.2,0.3,0.3,0.3,0.5c-2,4.6-4.8,8.7-8.3,12.3
			c-0.8,0.8-1.6,1.5-2.2,2.1c-0.7,0.5-1.6,1-2.8,1.4c-1.2,0.4-2.3,0.5-3.6,0.4h-0.1h-0.1h-0.4l0,0c-0.3,0-0.6,0-0.9-0.1
			c-0.8-0.1-1.6-0.4-2.5-0.8c-1.5-0.7-2.6-1.7-3.4-3c-0.5-0.9-0.9-1.8-1.1-2.8s-0.2-2.1,0.1-3.4c0.2-1.3,0.5-2.2,0.6-2.8
			c0.2-0.6,0.5-1.6,1-3.1c0.1-0.4,0.4-1.2,0.9-2.5s0.8-2.4,1-3.2c0.1-0.2,0.2-0.8,0.3-1.8c-0.1,0-0.2,0-0.3,0c-0.2,0-0.3,0-0.3-0.1
			c-0.1,0-0.2,0-0.3-0.1c-0.1,0-0.2,0-0.3,0h-0.1h-0.1c-0.1,0-0.5,0-1.1,0c-0.3,0-0.7,0-1.3-0.1c-0.5,0-1-0.1-1.2-0.1
			c-1.6-0.1-2.9-0.2-3.7-0.3c-2.6,4.8-5.5,9.2-8.7,13c-0.7,0.9-1.4,1.7-2.1,2.4c-0.6,0.7-1.5,1.5-2.5,2.5c-1,0.9-2,1.8-2.9,2.4
			c-0.9,0.7-2,1.3-3.3,2s-2.5,1.1-3.7,1.4s-2.5,0.5-4,0.5s-2.9-0.2-4.3-0.6l-0.5-0.2c-1.8-0.5-3.4-1.3-4.7-2.4
			c-1.3-1.1-2.2-2.4-2.9-3.8c-0.4-0.8-0.6-1.4-0.7-1.8c-0.1-0.6-0.2-1.3-0.2-2.2c0-1.3,0.2-2.7,0.6-4.2c0.8-3,2.2-5.8,4.2-8.6
			c4.6-6.5,9.5-9.7,14.7-9.7c1.7,0,3.1,0.6,4.2,1.7c2.1,1.1,3.2,2.9,3.4,5.4c0.1,1.5-0.2,3.1-1,5.1c-0.5,1.1-1.2,2.2-2.2,3.3
			c-0.1,0.1-0.7,0.6-1.6,1.4c-0.5,0.4-1,0.8-1.7,1.2c-3.6,1.9-6.6,2.3-9.2,1.3c-0.8-0.3-1.5-0.8-2.1-1.5c-0.4,0.9-0.7,1.8-1.1,2.9
			c-0.8,2.7-1,4.9-0.7,6.6v0.1c0,0.1,0.1,0.2,0.1,0.3c0,0.1,0.1,0.2,0.1,0.2c0,0.1,0,0.1,0,0.2c0,0,0,0,0,0.1c0.1,0.3,0.3,0.7,0.6,1
			l0.3,0.2l0,0l0.5,0.4c0.3,0.2,0.7,0.4,1.1,0.6c0,0,0.1,0,0.1,0.1s0.1,0.1,0.1,0.1c0.1,0,0.2,0,0.3,0.1c0.1,0,0.2,0.1,0.2,0.1
			c0.1,0,0.2,0.1,0.3,0.1c0.1,0,0.2,0,0.3,0.1c0.1,0,0.2,0,0.3,0c0.1,0,0.2,0,0.3,0c0.1,0,0.1,0,0.2,0s0.2,0,0.2,0
			c3.5-0.1,7.2-1.5,11.1-4.2c2-1.5,4-3.2,6-5.2c1.9-2,3.5-3.8,4.7-5.4s2.7-3.6,4.3-5.9c0.1-0.2,0.2-0.3,0.2-0.4
			c0.1-0.1,0.1-0.2,0.2-0.3s0.2-0.2,0.3-0.3c-0.1,0-0.1,0-0.3-0.1c-0.1,0-0.2,0-0.3,0c-1.7-0.4-3.2-1.1-4.4-1.9
			c-0.3-0.2-0.6-0.3-0.8-0.4c-0.7-0.5-1.2-0.7-1.3-0.8c-0.4-0.3-0.6-0.5-0.6-0.5l0,0c0.1,0.1,0.2,0.2,0.2,0.2
			c-0.2-0.2-0.5-0.4-0.9-0.7c-0.8-0.7-1.3-1.4-1.4-2.3l0,0c-0.2-0.4-0.3-0.7-0.3-0.8c-0.1-0.3-0.1-0.7-0.1-1.2c0-2.1,1-3.9,3-5.6
			c0.8-0.6,1.6-1,2.6-1.2c2.1-0.4,4-0.1,5.6,0.7c1.7,0.8,2.7,1.9,3,3.1c0,0.1,0.1,0.3,0.2,0.6c0.1,0.3,0.1,0.5,0.2,0.6
			c0.1,0.4,0.1,0.9,0,1.6c0,0.6-0.3,1.6-0.9,3.2c-0.2,0.6-0.5,1.2-0.8,1.8c0,0,0.3,0,0.7,0c0.5,0,0.8,0,1,0c2.6,0,4.4,0,5.4,0.2
			c2.3,0.5,4,1.3,5.3,2.5c1.6,1.3,2.2,3,1.9,5.1c-0.2,1.4-0.7,3.3-1.5,5.8s-1.3,4.3-1.5,5.3c-0.2,0.8-0.3,1.8-0.4,2.8
			c0,0.3,0,0.7,0,1.3v0.6v0.1c0,0.1,0,0.2,0,0.3c0,0.1,0.1,0.2,0.1,0.3c0,0.1,0,0.1,0,0.2c0,0,0,0.1,0.2,0.3
			c0.1,0.1,0.2,0.3,0.2,0.3l0,0l0,0h0.1c0.1,0,0.1,0,0.1,0c0.3,0.1,0.4,0.1,0.4,0.1h-0.3c0.1,0,0.1,0,0.2,0s0.1,0,0.2,0h0.1h0.1h0.3
			c0.7-0.1,1.3-0.3,1.8-0.5c1.3-0.5,2.6-1.4,4-2.5c1.2-1,2.3-2,3.3-3.2s2.1-2.6,3.3-4.2C477.9,429,478.8,427.8,479.4,427.1z
			 M426.4,418c-2.6,2.1-4.7,4.6-6.3,7.6v0.1c-0.3,1.1,0,1.9,1,2.2c0.9,0.3,2.1-0.1,3.5-1.1c0.3-0.2,0.5-0.4,0.7-0.6s0.4-0.4,0.5-0.6
			s0.3-0.4,0.5-0.8c0.2-0.3,0.4-0.6,0.5-0.7s0.3-0.7,0.8-1.7c0.1-0.1,0.2-0.4,0.4-0.7c0.2-0.3,0.3-0.6,0.4-0.8
			c0.1-0.2,0.1-0.5,0.3-0.8c0.1-0.4,0.2-0.7,0.3-0.9c0-0.1,0.1-0.2,0.1-0.4c0.1-0.2,0.1-0.3,0.1-0.4l0,0l0,0c0,0,0,0,0-0.1
			c0.2-0.9,0.4-1.6,0.4-2c0.1-0.3,0.1-0.5,0.1-0.6l0,0C428.5,416.5,427.5,417.2,426.4,418z M448.2,415.7c0.1,0,0.2,0,0.3,0
			c0.1,0,0.2,0,0.3,0c0,0,0.1,0,0.3,0c0.1,0,0.3,0,0.4,0s0.2,0,0.3,0h0.1c0.5-2.2,0.6-4.1,0.3-5.8c0-0.1-0.2-0.6-0.6-1.5l0,0v-0.1
			c-0.1-0.1-0.1-0.2-0.1-0.2s0,0-0.1-0.1l0.1,0.1l0,0c0,0,0,0,0-0.1l0,0l0,0l0,0v-0.1h-0.3H449c-0.1,0-0.2,0.1-0.4,0.1
			c-0.2,0-0.3,0.1-0.3,0.1c-0.3,0.1-0.5,0.3-0.7,0.5c0,0-0.1,0-0.1,0.1l-0.1,0.1c0,0-0.1,0.1-0.1,0.2c-0.1,0.1-0.1,0.1-0.1,0.1
			l0.1-0.1l0.1-0.1l-0.1,0.1l-0.1,0.1c-0.6,0.7-1,1.3-1.3,2c0,0,0,0.1,0,0.2s-0.1,0.1-0.1,0.2v-0.1v0.1v0.1v0.1v0.1
			c-0.1,0.2-0.1,0.3-0.1,0.4c-0.1,0.5-0.2,0.8-0.2,1.1c0,0.3,0,0.6,0,0.7v0.2l0,0l0,0l0,0l0,0c0,0.1,0,0.1,0,0.2s0.1,0.2,0.1,0.2
			s0,0,0,0.1l0,0c0,0,0,0,0,0.1v0.1l0,0h0.1c0,0,0.1,0,0.1,0.1c0,0,0.1,0,0.1,0.1c0,0,0.1,0,0.1,0.1h0.1c0.1,0,0.2,0.1,0.3,0.1
			c0.2,0.1,0.3,0.1,0.3,0.1c0.1,0.1,0.2,0.1,0.5,0.2c0.2,0.1,0.4,0.1,0.6,0.1L448.2,415.7z M445,414L445,414L445,414L445,414z
			 M445.5,411.4c0,0.1,0,0.2-0.1,0.2C445.4,411.5,445.5,411.4,445.5,411.4z M448.9,415.7h0.2C449,415.7,448.9,415.7,448.9,415.7
			L448.9,415.7z M449.5,407.9l0.1,0.1L449.5,407.9L449.5,407.9L449.5,407.9h-0.1l0,0C449.4,407.9,449.4,407.9,449.5,407.9z
			 M449.4,408L449.4,408L449.4,408L449.4,408z M449.4,407.9c0,0,0.1,0,0.1,0.1L449.4,407.9L449.4,407.9L449.4,407.9L449.4,407.9z"/>
		<path class="st5" d="M509,427c0.1-0.1,0.3-0.1,0.4,0c0.2,0.1,0.3,0.1,0.4,0.3c0.1,0.1,0.2,0.2,0.1,0.3c-2.1,3.1-4.6,6.1-7.6,9.1
			c-2.1,2.1-3.9,3.6-5.5,4.7c-1.7,1.1-3.1,1.9-4.4,2.3c-1.2,0.3-2.4,0.5-3.7,0.4c-1.3-0.1-2.5-0.3-3.6-0.8l0,0
			c-2-0.4-3.8-1.2-5.2-2.4c-1.4-1.2-2.5-2.5-3.2-4.1c-0.4-0.8-0.6-1.4-0.7-1.8c-0.1-0.6-0.2-1.3-0.2-2.2c0-1.3,0.2-2.7,0.6-4.2
			c0.8-3,2.2-5.8,4.2-8.6c0.7-0.9,1.3-1.8,1.9-2.5s1.4-1.6,2.4-2.5c1-1,2-1.8,3-2.4s2.2-1.2,3.5-1.6c1.3-0.5,2.7-0.7,4-0.7
			c0.8,0,1.6,0.2,2.4,0.5s1.4,0.7,1.9,1.3c2.1,1.1,3.2,2.9,3.4,5.4c0.1,1.5-0.2,3.2-1,5.1c-0.5,1.1-1.2,2.2-2.2,3.3l-1.7,1.4
			c-0.4,0.4-1,0.7-1.7,1.1c-3.6,1.9-6.6,2.3-9.2,1.3c-0.9-0.4-1.6-0.8-2.1-1.4c-0.4,0.8-0.7,1.8-1.1,2.9c-0.8,2.7-1,4.8-0.7,6.6v0.1
			c0,0.1,0,0.2,0.1,0.3c0,0.1,0.1,0.2,0.1,0.2c0,0.1,0,0.1,0,0.2l0,0c0,0,0,0,0,0.1c0.1,0.3,0.3,0.7,0.6,1l0.2,0.2l0.5,0.4
			c0.3,0.2,0.6,0.4,0.6,0.4c0.2,0.1,0.4,0.1,0.5,0.2c0.1,0,0.2,0.1,0.3,0.2c0.2,0.1,0.3,0.1,0.4,0.2s0.3,0.1,0.5,0.2
			c0,0-0.1,0-0.3-0.1l0.3,0.1h0.1c0.1,0,0.2,0,0.3,0.1c0.2,0,0.3,0,0.3,0h0.1h0.3c0.2,0,0.5,0,0.8-0.1h0.1h0.1c0.1,0,0.1,0,0.3-0.1
			c0.1,0,0.2,0,0.2,0c0.4-0.1,0.7-0.1,0.9-0.2c1.2-0.3,2.6-1,4.5-2.1c1.3-0.8,2.6-1.7,3.9-2.8c1.3-1.1,2.4-2,3.3-2.8
			c0.8-0.8,1.9-1.9,3.3-3.3C507.3,428.7,508.3,427.7,509,427z M492.6,418c-2.6,2.1-4.7,4.7-6.4,7.6l0,0v0.1c-0.3,1.1,0,1.9,1,2.2
			c0.9,0.3,2.1-0.1,3.5-1.1c0.3-0.2,0.5-0.4,0.7-0.6s0.4-0.4,0.5-0.6s0.3-0.4,0.5-0.8s0.4-0.6,0.5-0.7s0.3-0.7,0.8-1.7
			c0.1-0.1,0.2-0.4,0.4-0.7c0.2-0.3,0.3-0.6,0.4-0.8c0.1-0.2,0.1-0.5,0.3-0.8c0.1-0.4,0.2-0.7,0.3-0.9c0-0.1,0.1-0.2,0.1-0.4
			c0.1-0.2,0.1-0.3,0.1-0.4l0,0l0,0c0,0,0,0,0-0.1c0.2-0.9,0.4-1.6,0.4-2c0-0.1,0-0.3,0-0.6C494.7,416.5,493.7,417.2,492.6,418z"/>
		<path class="st5" d="M529.3,427.1c0.1-0.1,0.3-0.1,0.5-0.1s0.3,0.1,0.4,0.3c0.1,0.1,0.2,0.3,0.1,0.4c-1.5,2.7-3.5,5.8-6,9.2
			c-1.2,1.6-2.3,2.9-3.2,3.8c0,0,0,0,0,0.1v0.1c-0.8,1.3-2.3,2.3-4.4,3c-2.1,0.7-4.3,0.9-6.4,0.6c-2.3-0.3-4.3-1.1-5.9-2.3
			c-1.6-1.2-2.5-2.7-2.6-4.3c0-0.3,0.3-0.4,0.9-0.1c0.3,0.1,0.5,0.2,0.5,0.4c0.6,1,1.2,1.8,1.9,2.4c0.7,0.6,1.7,1,2.8,1.3
			c1.9,0.4,3.7,0.1,5.3-0.7c1.5-0.8,2.3-1.9,2.3-3.3c0-0.6-0.2-1.3-0.7-2.2c-0.3-0.6-0.5-1-0.7-1.2c0-0.1-0.1-0.2-0.2-0.3
			c-0.1-0.1-0.2-0.2-0.2-0.3l0,0c-0.5-0.5-0.8-0.8-1.1-1.1c0,0-0.1-0.1-0.2-0.2c-0.1-0.1-0.1-0.1-0.2-0.2l0,0
			c-1.2-1-2.1-1.7-2.6-2.2c-2.6-2.4-4.4-4.8-5.5-7.1c-0.9-2-1-4-0.2-6.2s2.4-3.9,4.7-5.2c2.7-1.4,5.5-2,8.4-1.6s5.4,1.5,7.4,3.3
			c0.7,0.6,0.9,1.2,0.6,1.8c0,0.4,0,0.6-0.1,0.8c0,0-0.1,0.1-0.1,0.2s-0.1,0.2-0.1,0.3c0,0,0,0,0,0.1v-0.1c0,0,0,0.1,0,0.2
			s-0.1,0.1-0.1,0.2l-0.3,0.5c-0.2,0.5-0.5,0.8-0.8,1.2c-0.6,0.8-1,1.2-1,1.2c-0.1,0.1-0.4,0.4-0.6,0.6c-0.3,0.3-0.5,0.5-0.6,0.6
			c-0.2,0.1-0.4,0.3-0.7,0.6c-0.3,0.3-0.5,0.5-0.7,0.6c-1.1,0.9-2.1,1.7-3,2.4c-0.1,0.1-0.3,0.1-0.5,0s-0.3-0.2-0.4-0.3
			c-0.1-0.1-0.1-0.2,0-0.3c1.2-0.9,2.1-1.7,2.6-2.4c0.6-0.8,1-1.2,1-1.3c0.1-0.1,0.2-0.3,0.4-0.6c0.2-0.3,0.3-0.5,0.4-0.7
			c0.3-1,0.5-1.9,0.3-2.8v-0.1c0,0,0-0.1,0-0.2s0-0.1,0-0.2v-0.1v-0.1l0,0v-0.1c0,0-0.1,0-0.1-0.1l-0.1-0.1c0,0-0.1,0-0.1-0.1V415
			c-0.1-0.1-0.3-0.1-0.4-0.1l-0.3-0.1h-0.3l0,0c-0.2,0-0.3,0-0.3,0c-1,0-2.1,0.2-3.2,0.7c-1.1,0.5-2,1.1-2.8,2
			c-0.8,0.8-1.4,1.7-1.7,2.7c-0.6,1.7-0.1,3.6,1.5,5.6c0.7,0.9,1.6,1.9,2.8,2.9c0.1,0,0.2,0.2,0.4,0.4l0.5,0.4
			c-0.1,0-0.1-0.1-0.3-0.2c0.1,0.1,0.3,0.3,0.6,0.5s0.5,0.4,0.6,0.5c2.3,2,3.8,4,4.4,6c0.1-0.1,0.2-0.2,0.3-0.3
			c0.1-0.1,0.2-0.2,0.3-0.3c0.7-0.8,1.9-2.1,3.5-4C527.1,429.5,528.4,428.1,529.3,427.1z"/>
	</g>
</g>
</svg>
